<?xml version="1.0" standalone="no"?>
<!DOCTYPE svg PUBLIC "-//W3C//DTD SVG 20010904//EN"
 "http://www.w3.org/TR/2001/REC-SVG-20010904/DTD/svg10.dtd">
<svg version="1.0" xmlns="http://www.w3.org/2000/svg"
 width="250.000000pt" height="250.000000pt" viewBox="0 0 250.000000 250.000000"
 preserveAspectRatio="xMidYMid meet">
<metadata>
Created by potrace 1.11, written by Peter Selinger 2001-2013
</metadata>
<g transform="translate(0.000000,250.000000) scale(0.100000,-0.100000)"
fill="#000000" stroke="none">
<path d="M1139 2490 c-222 -21 -461 -115 -644 -255 -149 -113 -267 -258 -354
-431 -95 -190 -131 -343 -131 -560 0 -220 44 -392 150 -591 66 -123 113 -187
219 -292 403 -404 1047 -475 1538 -169 226 141 433 401 516 650 152 455 33
960 -304 1289 -106 105 -188 164 -314 227 -215 107 -448 153 -676 132z m154
-320 c3 -11 1 -20 -4 -20 -5 0 -9 9 -9 20 0 11 2 20 4 20 2 0 6 -9 9 -20z
m112 -40 l7 -60 91 -2 c51 0 77 -3 60 -5 -24 -3 -33 -9 -33 -22 0 -15 12 -20
63 -27 l62 -9 0 -87 c0 -48 -3 -90 -7 -93 -3 -4 -73 -8 -155 -9 l-148 -3 0
-29 0 -29 125 0 125 0 3 -32 c3 -29 7 -33 33 -33 27 0 29 -3 29 -35 0 -30 3
-35 24 -35 31 0 36 -31 36 -221 l0 -147 25 -4 c13 -3 27 -3 30 0 3 3 5 45 5
94 l0 88 35 0 c33 0 35 2 35 35 0 32 2 35 31 35 28 0 30 -2 27 -32 -2 -27 -8
-34 -30 -36 -27 -3 -27 -3 -30 -95 l-3 -92 -30 -5 c-23 -4 -30 -11 -29 -28 0
-18 -5 -22 -33 -22 -29 0 -33 3 -33 25 0 21 -5 25 -30 25 l-29 0 -3 -92 c-3
-92 -3 -93 -30 -96 -24 -3 -27 -8 -33 -63 -7 -57 -8 -59 -36 -59 -26 0 -29 4
-29 30 l0 31 -62 -3 c-70 -3 -64 5 -67 -90 -1 -35 -3 -38 -30 -38 -25 0 -30
-4 -33 -27 -2 -22 -9 -29 -30 -31 -23 -3 -28 -8 -28 -31 0 -28 -2 -29 -65 -36
-36 -3 -94 -3 -130 0 -63 7 -65 8 -65 36 0 25 -4 29 -29 29 -26 0 -30 4 -33
33 -2 27 -8 33 -30 35 -26 3 -28 7 -28 46 0 24 -3 64 -6 90 -6 43 -9 46 -35
46 -26 0 -29 -4 -29 -30 0 -26 -3 -30 -29 -30 -26 0 -29 3 -35 46 -3 26 -6 69
-6 97 0 44 -2 48 -16 36 -10 -8 -12 -15 -5 -17 19 -6 12 -32 -9 -32 -16 0 -20
7 -20 30 0 28 -3 30 -35 30 -32 0 -35 2 -35 29 0 26 -4 30 -32 33 l-33 3 -5
98 c-3 53 -8 97 -12 97 -5 0 -15 0 -23 0 -10 0 -15 10 -15 30 0 29 1 30 50 30
28 0 50 3 50 8 0 15 -19 36 -27 29 -4 -5 -1 -13 7 -18 13 -9 13 -10 0 -6 -8 2
-17 12 -18 21 -3 13 2 17 19 14 28 -4 37 -30 38 -115 l1 -63 30 0 30 0 0 108
c0 59 3 131 6 160 6 49 8 52 35 52 25 0 29 4 29 29 0 27 3 29 50 35 28 4 55 4
61 1 5 -4 39 -3 74 0 63 7 65 8 65 36 l0 29 -124 0 -124 0 -7 59 c-4 33 -4 89
0 125 l7 65 62 3 c53 3 61 6 62 23 1 11 2 26 3 33 1 8 11 12 28 10 22 -2 29
-9 33 -33 4 -24 11 -31 33 -33 25 -3 27 -1 27 34 l0 36 93 -3 c50 -1 122 -2
158 -1 65 2 66 3 61 27 -4 23 -1 25 31 25 l35 0 7 -60z m250 -1330 c8 -66 1
-62 100 -65 25 -1 31 -6 33 -27 2 -21 9 -28 30 -30 22 -2 28 -9 30 -35 3 -31
1 -33 -27 -33 -26 0 -30 -4 -33 -32 -3 -29 -7 -33 -35 -36 -29 -3 -33 -7 -33
-33 0 -26 -3 -29 -30 -29 -27 0 -30 -3 -30 -30 0 -29 -1 -29 -62 -32 -61 -3
-63 -4 -68 -33 l-5 -30 -122 -3 -122 -3 -3 -27 c-4 -31 -26 -36 -125 -26 -58
5 -63 8 -63 29 0 23 -4 24 -67 27 l-68 3 0 30 c0 25 -4 30 -27 33 l-28 3 0 95
0 95 58 -3 c31 -1 130 -1 219 0 l162 2 3 28 c3 28 4 29 91 31 34 1 37 3 37 31
0 27 3 30 29 30 26 0 30 4 33 33 3 28 7 32 36 35 28 3 32 7 32 33 0 24 4 29
24 29 22 0 25 -5 31 -60z"/>
<path d="M764 1675 c-15 -37 2 -45 95 -45 84 0 89 1 95 23 3 12 6 25 6 30 0 4
-43 7 -95 7 -76 0 -97 -3 -101 -15z"/>
<path d="M1410 1660 c0 -29 2 -30 44 -30 24 0 64 -3 90 -6 l46 -7 0 37 0 36
-90 0 -90 0 0 -30z"/>
<path d="M995 1301 c-20 -4 -26 -9 -17 -14 6 -5 12 -16 11 -25 0 -14 -2 -14
-8 2 -7 19 -8 19 -13 -2 -5 -16 -14 -22 -36 -22 -27 0 -30 -3 -36 -46 -10 -77
-13 -74 59 -74 l65 0 0 -36 c0 -34 1 -35 33 -32 28 3 32 6 32 33 0 27 -4 30
-32 33 -30 3 -33 6 -33 36 0 30 3 33 24 29 30 -6 34 1 42 71 l7 56 -34 -1
c-19 -1 -47 -4 -64 -8z m25 -37 c0 -8 -4 -14 -9 -14 -6 0 -9 9 -8 19 1 22 17
18 17 -5z"/>
<path d="M1210 1275 c0 -33 2 -35 31 -35 28 0 31 -3 27 -24 -6 -29 -1 -32 75
-41 51 -7 57 -10 57 -31 0 -21 5 -24 35 -24 32 0 35 2 35 29 0 26 -4 30 -32
33 -29 3 -33 6 -30 31 3 25 1 27 -32 27 -34 0 -36 2 -36 35 l0 35 -65 0 -65 0
0 -35z"/>
<path d="M1228 1193 c7 -3 16 -2 19 1 4 3 -2 6 -13 5 -11 0 -14 -3 -6 -6z"/>
<path d="M1365 1130 c-19 -8 -19 -9 3 -9 12 -1 22 4 22 9 0 6 -1 10 -2 9 -2 0
-12 -4 -23 -9z"/>
<path d="M1247 1113 c-30 -3 -37 -8 -33 -19 3 -9 6 -20 6 -25 0 -5 25 -9 55
-9 54 0 55 0 55 30 0 32 3 32 -83 23z"/>
</g>
</svg>
